0
SECTION
2
HEADER
9
$INSUNITS
70
4
9
$ACADVER
1
AC1014
9
$HANDSEED
5
FFFF
0
ENDSEC
0
SECTION
2
TABLES
0
TABLE
2
VPORT
5
8
100
AcDbSymbolTable
0
ENDTAB
0
TABLE
2
LTYPE
5
5
100
AcDbSymbolTable
0
LTYPE
5
14
100
AcDbSymbolTableRecord
100
AcDbLinetypeTableRecord
2
BYBLOCK
70
0
0
LTYPE
5
15
100
AcDbSymbolTableRecord
100
AcDbLinetypeTableRecord
2
BYLAYER
70
0
0
LTYPE
5
16
100
AcDbSymbolTableRecord
100
AcDbLinetypeTableRecord
2
DASHED
70
0
3
Dashed __ __ __ __ __ __ __ __ __ __ __ __ __ _
72
65
73
2
40
0.75
49
0.5
74
0
49
-0.25
74
0
0
ENDTAB
0
TABLE
2
LAYER
5
2
100
AcDbSymbolTable
70
3
0
LAYER
5
50
100
AcDbSymbolTableRecord
100
AcDbLayerTableRecord
2
1
70
0
62
7
6
DASHED
0
LAYER
5
51
100
AcDbSymbolTableRecord
100
AcDbLayerTableRecord
2
0
70
0
62
7
6
CONTINUOUS
0
ENDTAB
0
TABLE
2
STYLE
5
3
100
AcDbSymbolTable
70
1
0
STYLE
5
11
100
AcDbSymbolTableRecord
100
AcDbTextStyleTableRecord
2
STANDARD
70
0
0
ENDTAB
0
TABLE
2
VIEW
5
6
100
AcDbSymbolTable
70
0
0
ENDTAB
0
TABLE
2
UCS
5
7
100
AcDbSymbolTable
70
0
0
ENDTAB
0
TABLE
2
APPID
5
9
100
AcDbSymbolTable
70
2
0
APPID
5
12
100
AcDbSymbolTableRecord
100
AcDbRegAppTableRecord
2
ACAD
70
0
0
ENDTAB
0
TABLE
2
DIMSTYLE
5
A
100
AcDbSymbolTable
70
1
0
ENDTAB
0
TABLE
2
BLOCK_RECORD
5
1
100
AcDbSymbolTable
70
1
0
BLOCK_RECORD
5
1F
100
AcDbSymbolTableRecord
100
AcDbBlockTableRecord
2
*MODEL_SPACE
0
BLOCK_RECORD
5
1B
100
AcDbSymbolTableRecord
100
AcDbBlockTableRecord
2
*PAPER_SPACE
0
ENDTAB
0
ENDSEC
0
SECTION
2
BLOCKS
0
BLOCK
5
20
100
AcDbEntity
100
AcDbBlockBegin
2
*MODEL_SPACE
0
ENDBLK
5
21
100
AcDbEntity
100
AcDbBlockEnd
0
BLOCK
5
1C
100
AcDbEntity
100
AcDbBlockBegin
2
*PAPER_SPACE
0
ENDBLK
5
1D
100
AcDbEntity
100
AcDbBlockEnd
0
ENDSEC
0
SECTION
2
ENTITIES
0
POINT
5
100
100
AcDbEntity
8
0
100
AcDbPoint
10
0
20
0
30
0
0
POINT
5
101
100
AcDbEntity
8
0
100
AcDbPoint
10
0.21152495889970702
20
14.542359371556145
30
0
0
POINT
5
102
100
AcDbEntity
8
0
100
AcDbPoint
10
17.037086855467148
20
129.40952255126578
30
0
0
POINT
5
103
100
AcDbEntity
8
0
100
AcDbPoint
10
-11.633461899574339
20
14.887013288662018
30
0
0
POINT
5
104
100
AcDbEntity
8
0
100
AcDbPoint
10
0
20
0
30
0
0
POINT
5
105
100
AcDbEntity
8
0
100
AcDbPoint
10
12.056511817373758
20
14.197705454450276
30
0
0
POINT
5
106
100
AcDbEntity
8
0
100
AcDbPoint
10
-11.850000000000001
20
8.3266726846886741e-16
30
0
0
POINT
5
107
100
AcDbEntity
8
0
100
AcDbPoint
10
-13.35
20
-0.74999999999999944
30
0
0
POINT
5
108
100
AcDbEntity
8
0
100
AcDbPoint
10
-13.35
20
0.75000000000000078
30
0
0
POINT
5
109
100
AcDbEntity
8
0
100
AcDbPoint
10
-10.350000000000001
20
0.75000000000000078
30
0
0
POINT
5
110
100
AcDbEntity
8
0
100
AcDbPoint
10
-11.850000000000001
20
8.3266726846886741e-16
30
0
0
POINT
5
111
100
AcDbEntity
8
0
100
AcDbPoint
10
-20
20
-2.0000000000000027
30
0
0
POINT
5
112
100
AcDbEntity
8
0
100
AcDbPoint
10
-20
20
2
30
0
0
POINT
5
113
100
AcDbEntity
8
0
100
AcDbPoint
10
20
20
2
30
0
0
LINE
5
114
100
AcDbEntity
8
0
100
AcDbLine
10
-1.7637915801090664
20
136.5177551058934
30
0
11
36.873241471454001
21
126.16499330179421
31
0
0
LINE
5
115
100
AcDbEntity
8
1
100
AcDbLine
10
-1.7637915801090664
20
136.5177551058934
30
0
11
35.837965291043965
21
122.30128999663791
31
0
0
LINE
5
116
100
AcDbEntity
8
1
100
AcDbLine
10
13.534063703439575
20
13.404395663774036
30
0
11
10.578959931307734
21
14.991015245126624
31
0
0
LINE
5
117
100
AcDbEntity
8
1
100
AcDbLine
10
17.037086855467148
20
129.40952255126578
30
0
11
500
21
6.3726801613484006e-13
31
0
0
LINE
5
118
100
AcDbEntity
8
0
100
AcDbLine
10
-10.112282935393665
20
15.593068923109048
30
0
11
-10.155910013508326
21
14.093703497985647
31
0
0
LINE
5
119
100
AcDbEntity
8
0
100
AcDbLine
10
36.873241471454001
20
126.16499330179421
30
0
11
35.837965291043965
21
122.30128999663791
31
0
0
LINE
5
120
100
AcDbEntity
8
0
100
AcDbLine
10
-10.155910013508326
20
14.093703497985647
30
0
11
-13.154640863754903
21
14.180957654215048
31
0
0
LINE
5
121
100
AcDbEntity
8
0
100
AcDbLine
10
10.535332853193085
20
13.491649820003222
30
0
11
10.578959931307734
21
14.991015245126624
31
0
0
LWPOLYLINE
5
122
100
AcDbEntity
8
0
100
AcDbPolyline
90
4
70
1
43
0.0
10
-19.721844605258202
20
17.123207646582784
10
20.261233398029809
20
15.9598188968583
10
20.144894523057385
20
11.961511096529541
10
-19.838183480230526
20
13.124899846253976
0
LINE
5
123
100
AcDbEntity
8
0
100
AcDbLine
10
10.578959931307734
20
14.991015245126624
30
0
11
13.577690781554333
21
14.903761088897285
31
0
0
LINE
5
124
100
AcDbEntity
8
0
100
AcDbLine
10
-13.111013785640264
20
15.680323079338351
30
0
11
-10.112282935393665
21
15.593068923109048
31
0
0
LINE
5
125
100
AcDbEntity
8
1
100
AcDbLine
10
-11.69163133706058
20
12.887859388497624
30
0
11
-11.575292462088104
21
16.886167188826416
31
0
0
LINE
5
126
100
AcDbEntity
8
0
100
AcDbLine
10
-13.154640863754903
20
14.180957654215048
30
0
11
-13.111013785640264
21
15.680323079338351
31
0
0
LINE
5
127
100
AcDbEntity
8
1
100
AcDbLine
10
500
20
6.3726801613484006e-13
30
0
11
0.21152495889970702
21
14.542359371556145
31
0
0
ARC
5
128
100
AcDbEntity
8
1
100
AcDbCircle
10
500
20
6.3726801613484006e-13
30
0
40
511.85000000000002
210
0
220
0
230
1
100
AcDbArc
50
178.3333333333336
51
180
0
LINE
5
129
100
AcDbEntity
8
1
100
AcDbLine
10
-10.155910013508326
20
14.093703497985647
30
0
11
-13.111013785640264
21
15.680323079338351
31
0
0
LINE
5
130
100
AcDbEntity
8
1
100
AcDbLine
10
-19.838183480230526
20
13.124899846253976
30
0
11
20.261233398029809
21
15.9598188968583
31
0
0
ARC
5
131
100
AcDbEntity
8
1
100
AcDbCircle
10
500
20
6.3726801613484006e-13
30
0
40
500
210
0
220
0
230
1
100
AcDbArc
50
164.99999999999943
51
180
0
LINE
5
132
100
AcDbEntity
8
1
100
AcDbLine
10
10.535332853193085
20
13.491649820003222
30
0
11
13.577690781554333
21
14.903761088897285
31
0
0
LINE
5
133
100
AcDbEntity
8
0
100
AcDbLine
10
13.534063703439575
20
13.404395663774036
30
0
11
10.535332853193085
21
13.491649820003222
31
0
0
LINE
5
134
100
AcDbEntity
8
1
100
AcDbLine
10
36.873241471454001
20
126.16499330179421
30
0
11
-2.7990677605203418
21
132.65405180073745
31
0
0
LINE
5
135
100
AcDbEntity
8
0
100
AcDbLine
10
13.577690781554333
20
14.903761088897285
30
0
11
13.534063703439575
21
13.404395663774036
31
0
0
LINE
5
136
100
AcDbEntity
8
1
100
AcDbLine
10
0
20
0
30
0
11
500
21
6.3726801613484006e-13
31
0
0
LINE
5
137
100
AcDbEntity
8
1
100
AcDbLine
10
20.144894523057385
20
11.961511096529541
30
0
11
-19.721844605258202
21
17.123207646582784
31
0
0
LINE
5
138
100
AcDbEntity
8
1
100
AcDbLine
10
11.998342379887498
20
12.198551554285892
30
0
11
12.11468125486001
21
16.196859354614659
31
0
0
LINE
5
139
100
AcDbEntity
8
0
100
AcDbLine
10
35.837965291043965
20
122.30128999663791
30
0
11
-2.7990677605203418
21
132.65405180073745
31
0
0
LINE
5
140
100
AcDbEntity
8
0
100
AcDbLine
10
-2.7990677605203418
20
132.65405180073745
30
0
11
-1.7637915801090664
21
136.5177551058934
31
0
0
LINE
5
141
100
AcDbEntity
8
1
100
AcDbLine
10
-13.154640863754903
20
14.180957654215048
30
0
11
-10.112282935393665
21
15.593068923109048
31
0
0
LINE
5
142
100
AcDbEntity
8
0
100
AcDbLine
10
-19.999999999998877
20
-1.9999999999998741
30
0
11
-19.999999999998877
21
2.0000000000001257
31
0
0
LINE
5
143
100
AcDbEntity
8
0
100
AcDbLine
10
-19.999999999998877
20
2.0000000000001257
30
0
11
20.000000000001123
21
2.0000000000001221
31
0
0
LINE
5
144
100
AcDbEntity
8
0
100
AcDbLine
10
20.000000000001123
20
2.0000000000001221
30
0
11
20.000000000001119
21
-1.9999999999998741
31
0
0
LINE
5
145
100
AcDbEntity
8
0
100
AcDbLine
10
20.000000000001119
20
-1.9999999999998741
30
0
11
-19.999999999998877
21
-1.9999999999998741
31
0
0
LINE
5
146
100
AcDbEntity
8
1
100
AcDbLine
10
-13.35000000000819
20
-0.7499999999990079
30
0
11
-13.350000000008194
21
0.75000000000099198
31
0
0
LINE
5
147
100
AcDbEntity
8
1
100
AcDbLine
10
-13.350000000008194
20
0.75000000000099198
30
0
11
-10.350000000008189
21
0.75000000000099198
31
0
0
LINE
5
148
100
AcDbEntity
8
1
100
AcDbLine
10
-11.633461899574339
20
14.887013288662018
30
0
11
12.056511817373758
21
14.197705454450276
31
0
0
LINE
5
149
100
AcDbEntity
8
1
100
AcDbLine
10
-12.25
20
2
30
0
11
-12.25
21
-2.0000000000000027
31
0
0
LINE
5
150
100
AcDbEntity
8
1
100
AcDbLine
10
-11.449999999999999
20
-2.0000000000000027
30
0
11
-11.449999999999999
21
2
31
0
0
LINE
5
151
100
AcDbEntity
8
1
100
AcDbLine
10
2.2204460492503131e-15
20
2.0000000000001239
30
0
11
-2.2204460492503131e-15
21
-1.999999999999853
31
0
0
LINE
5
152
100
AcDbEntity
8
0
100
AcDbLine
10
-19.999999999998877
20
0.049999999999992967
30
0
11
20
21
0.050000000000037376
31
0
0
CIRCLE
5
153
100
AcDbEntity
8
1
100
AcDbCircle
10
0
20
0
30
0
40
0.049999999999970762
210
0
220
0
230
1
0
LINE
5
154
100
AcDbEntity
8
1
100
AcDbLine
10
-12.850000000000001
20
0.050000000000000835
30
0
11
-10.949999999999999
21
0.050000000000000676
31
0
0
LINE
5
155
100
AcDbEntity
8
0
100
AcDbLine
10
-2.2943706225695899
20
134.5376071620019
30
0
11
36.342662428993641
21
124.18484535790078
31
0
0
CIRCLE
5
156
100
AcDbEntity
8
1
100
AcDbCircle
10
17.037086855467148
20
129.40952255126578
30
0
40
0.049999999999970762
210
0
220
0
230
1
0
ENDSEC
0
SECTION
2
OBJECTS
0
DICTIONARY
5
C
100
AcDbDictionary
3
ACAD_GROUP
350
D
3
ACAD_MLINESTYLE
350
17
0
DICTIONARY
5
D
100
AcDbDictionary
0
DICTIONARY
5
1A
330
C
100
AcDbDictionary
0
DICTIONARY
5
17
100
AcDbDictionary
0
ENDSEC
0
EOF
