0
SECTION
2
HEADER
9
$INSUNITS
70
4
9
$ACADVER
1
AC1014
9
$HANDSEED
5
FFFF
0
ENDSEC
0
SECTION
2
TABLES
0
TABLE
2
VPORT
5
8
100
AcDbSymbolTable
0
ENDTAB
0
TABLE
2
LTYPE
5
5
100
AcDbSymbolTable
0
LTYPE
5
14
100
AcDbSymbolTableRecord
100
AcDbLinetypeTableRecord
2
BYBLOCK
70
0
0
LTYPE
5
15
100
AcDbSymbolTableRecord
100
AcDbLinetypeTableRecord
2
BYLAYER
70
0
0
LTYPE
5
16
100
AcDbSymbolTableRecord
100
AcDbLinetypeTableRecord
2
DASHED
70
0
3
Dashed __ __ __ __ __ __ __ __ __ __ __ __ __ _
72
65
73
2
40
0.75
49
0.5
74
0
49
-0.25
74
0
0
ENDTAB
0
TABLE
2
LAYER
5
2
100
AcDbSymbolTable
70
3
0
LAYER
5
50
100
AcDbSymbolTableRecord
100
AcDbLayerTableRecord
2
1
70
0
62
7
6
DASHED
0
LAYER
5
51
100
AcDbSymbolTableRecord
100
AcDbLayerTableRecord
2
0
70
0
62
7
6
CONTINUOUS
0
ENDTAB
0
TABLE
2
STYLE
5
3
100
AcDbSymbolTable
70
1
0
STYLE
5
11
100
AcDbSymbolTableRecord
100
AcDbTextStyleTableRecord
2
STANDARD
70
0
0
ENDTAB
0
TABLE
2
VIEW
5
6
100
AcDbSymbolTable
70
0
0
ENDTAB
0
TABLE
2
UCS
5
7
100
AcDbSymbolTable
70
0
0
ENDTAB
0
TABLE
2
APPID
5
9
100
AcDbSymbolTable
70
2
0
APPID
5
12
100
AcDbSymbolTableRecord
100
AcDbRegAppTableRecord
2
ACAD
70
0
0
ENDTAB
0
TABLE
2
DIMSTYLE
5
A
100
AcDbSymbolTable
70
1
0
ENDTAB
0
TABLE
2
BLOCK_RECORD
5
1
100
AcDbSymbolTable
70
1
0
BLOCK_RECORD
5
1F
100
AcDbSymbolTableRecord
100
AcDbBlockTableRecord
2
*MODEL_SPACE
0
BLOCK_RECORD
5
1B
100
AcDbSymbolTableRecord
100
AcDbBlockTableRecord
2
*PAPER_SPACE
0
ENDTAB
0
ENDSEC
0
SECTION
2
BLOCKS
0
BLOCK
5
20
100
AcDbEntity
100
AcDbBlockBegin
2
*MODEL_SPACE
0
ENDBLK
5
21
100
AcDbEntity
100
AcDbBlockEnd
0
BLOCK
5
1C
100
AcDbEntity
100
AcDbBlockBegin
2
*PAPER_SPACE
0
ENDBLK
5
1D
100
AcDbEntity
100
AcDbBlockEnd
0
ENDSEC
0
SECTION
2
ENTITIES
0
POINT
5
100
100
AcDbEntity
8
0
100
AcDbPoint
10
0
20
0
30
0
0
POINT
5
101
100
AcDbEntity
8
0
100
AcDbPoint
10
4.2862637970157371e-14
20
100
30
0
0
POINT
5
102
100
AcDbEntity
8
0
100
AcDbPoint
10
6.1232339957367661e-15
20
14.285714285714285
30
0
0
POINT
5
103
100
AcDbEntity
8
0
100
AcDbPoint
10
0
20
0
30
0
0
POINT
5
104
100
AcDbEntity
8
0
100
AcDbPoint
10
-11.850000000000001
20
14.285714285714279
30
0
0
POINT
5
105
100
AcDbEntity
8
0
100
AcDbPoint
10
11.850000000000009
20
14.285714285714288
30
0
0
POINT
5
106
100
AcDbEntity
8
0
100
AcDbPoint
10
-11.850000000000001
20
8.3266726846886741e-16
30
0
0
POINT
5
107
100
AcDbEntity
8
0
100
AcDbPoint
10
-20
20
-2.0000000000000027
30
0
0
POINT
5
108
100
AcDbEntity
8
0
100
AcDbPoint
10
-20
20
2
30
0
0
POINT
5
109
100
AcDbEntity
8
0
100
AcDbPoint
10
20
20
2
30
0
0
LWPOLYLINE
5
110
100
AcDbEntity
8
0
100
AcDbPolyline
90
4
70
1
43
0.0
10
19.999999999999705
20
98.000000000000185
10
-20.000000000000636
20
97.999999999999972
10
-20.000000000000622
20
101.99999999999997
10
19.999999999999705
20
101.99999999999997
0
LINE
5
111
100
AcDbEntity
8
1
100
AcDbLine
10
19.999999999999705
20
98.000000000000185
30
0
11
-20.000000000000622
21
101.99999999999997
31
0
0
LINE
5
112
100
AcDbEntity
8
1
100
AcDbLine
10
-20.000000000000636
20
97.999999999999972
30
0
11
19.999999999999705
21
101.99999999999997
31
0
0
LWPOLYLINE
5
113
100
AcDbEntity
8
0
100
AcDbPolyline
90
4
70
1
43
0.0
10
20.000000000000043
20
12.285714285714285
10
-19.999999999999989
20
12.285714285714285
10
-20
20
16.285714285714285
10
20.000000000000007
20
16.285714285714285
0
LINE
5
114
100
AcDbEntity
8
1
100
AcDbLine
10
20.000000000000043
20
12.285714285714285
30
0
11
-20
21
16.285714285714285
31
0
0
LINE
5
115
100
AcDbEntity
8
1
100
AcDbLine
10
-19.999999999999989
20
12.285714285714285
30
0
11
20.000000000000007
21
16.285714285714285
31
0
0
LINE
5
116
100
AcDbEntity
8
1
100
AcDbLine
10
4.2862637970157371e-14
20
100
30
0
11
0
21
0
31
0
0
LINE
5
117
100
AcDbEntity
8
1
100
AcDbLine
10
-11.850000000000001
20
14.285714285714279
30
0
11
11.850000000000009
21
14.285714285714288
31
0
0
LWPOLYLINE
5
118
100
AcDbEntity
8
0
100
AcDbPolyline
90
4
70
1
43
0.0
10
-13.349999999999998
20
13.535714285714281
10
-10.350000000000003
20
13.535714285714281
10
-10.350000000000003
20
15.035714285714279
10
-13.35
20
15.035714285714279
0
LINE
5
119
100
AcDbEntity
8
1
100
AcDbLine
10
-13.349999999999998
20
13.535714285714281
30
0
11
-10.350000000000003
21
15.035714285714279
31
0
0
LINE
5
120
100
AcDbEntity
8
1
100
AcDbLine
10
-10.350000000000003
20
13.535714285714281
30
0
11
-13.35
21
15.035714285714279
31
0
0
LWPOLYLINE
5
121
100
AcDbEntity
8
0
100
AcDbPolyline
90
4
70
1
43
0.0
10
13.350000000000005
20
13.535714285714295
10
10.35000000000001
20
13.535714285714288
10
10.350000000000009
20
15.035714285714283
10
13.350000000000005
20
15.035714285714283
0
LINE
5
122
100
AcDbEntity
8
1
100
AcDbLine
10
13.350000000000005
20
13.535714285714295
30
0
11
10.350000000000009
21
15.035714285714283
31
0
0
LINE
5
123
100
AcDbEntity
8
1
100
AcDbLine
10
10.35000000000001
20
13.535714285714288
30
0
11
13.350000000000005
21
15.035714285714283
31
0
0
LINE
5
124
100
AcDbEntity
8
1
100
AcDbLine
10
-19.999999999998877
20
-1.9999999999998741
30
0
11
-19.999999999998877
21
2.0000000000001261
31
0
0
LINE
5
125
100
AcDbEntity
8
0
100
AcDbLine
10
-19.999999999998877
20
2.0000000000001261
30
0
11
20.000000000001123
21
2.0000000000001221
31
0
0
LINE
5
126
100
AcDbEntity
8
0
100
AcDbLine
10
-13.35
20
-0.74999999999999944
30
0
11
-13.35
21
0.75000000000000078
31
0
0
LINE
5
127
100
AcDbEntity
8
0
100
AcDbLine
10
-13.35
20
0.75000000000000078
30
0
11
-10.350000000000001
21
0.75000000000000078
31
0
0
LWPOLYLINE
5
128
100
AcDbEntity
8
0
100
AcDbPolyline
90
4
70
1
43
0.0
10
-12.25
20
8.3266726846886741e-16
10
-11.449999999999999
20
8.3266726846886741e-16
10
-11.449999999999999
20
100
10
-12.250000000000023
20
100
0
LWPOLYLINE
5
129
100
AcDbEntity
8
0
100
AcDbPolyline
90
4
70
1
43
0.0
10
12.250000000000023
20
0
10
11.449999999999999
20
0
10
11.450000000000085
20
100
10
12.249999999999989
20
100
0
LINE
5
130
100
AcDbEntity
8
1
100
AcDbLine
10
-11.449999999999999
20
-2.0000000000000027
30
0
11
-11.449999999999999
21
2
31
0
0
LINE
5
131
100
AcDbEntity
8
1
100
AcDbLine
10
-12.25
20
2
30
0
11
-12.25
21
-2.0000000000000027
31
0
0
ENDSEC
0
SECTION
2
OBJECTS
0
DICTIONARY
5
C
100
AcDbDictionary
3
ACAD_GROUP
350
D
3
ACAD_MLINESTYLE
350
17
0
DICTIONARY
5
D
100
AcDbDictionary
0
DICTIONARY
5
1A
330
C
100
AcDbDictionary
0
DICTIONARY
5
17
100
AcDbDictionary
0
ENDSEC
0
EOF
