0
SECTION
2
HEADER
9
$INSUNITS
70
4
9
$ACADVER
1
AC1014
9
$HANDSEED
5
FFFF
0
ENDSEC
0
SECTION
2
TABLES
0
TABLE
2
VPORT
5
8
100
AcDbSymbolTable
0
ENDTAB
0
TABLE
2
LTYPE
5
5
100
AcDbSymbolTable
0
LTYPE
5
14
100
AcDbSymbolTableRecord
100
AcDbLinetypeTableRecord
2
BYBLOCK
70
0
0
LTYPE
5
15
100
AcDbSymbolTableRecord
100
AcDbLinetypeTableRecord
2
BYLAYER
70
0
0
LTYPE
5
16
100
AcDbSymbolTableRecord
100
AcDbLinetypeTableRecord
2
DASHED
70
0
3
Dashed __ __ __ __ __ __ __ __ __ __ __ __ __ _
72
65
73
2
40
0.75
49
0.5
74
0
49
-0.25
74
0
0
ENDTAB
0
TABLE
2
LAYER
5
2
100
AcDbSymbolTable
70
3
0
LAYER
5
50
100
AcDbSymbolTableRecord
100
AcDbLayerTableRecord
2
1
70
0
62
7
6
DASHED
0
LAYER
5
51
100
AcDbSymbolTableRecord
100
AcDbLayerTableRecord
2
0
70
0
62
7
6
CONTINUOUS
0
ENDTAB
0
TABLE
2
STYLE
5
3
100
AcDbSymbolTable
70
1
0
STYLE
5
11
100
AcDbSymbolTableRecord
100
AcDbTextStyleTableRecord
2
STANDARD
70
0
0
ENDTAB
0
TABLE
2
VIEW
5
6
100
AcDbSymbolTable
70
0
0
ENDTAB
0
TABLE
2
UCS
5
7
100
AcDbSymbolTable
70
0
0
ENDTAB
0
TABLE
2
APPID
5
9
100
AcDbSymbolTable
70
2
0
APPID
5
12
100
AcDbSymbolTableRecord
100
AcDbRegAppTableRecord
2
ACAD
70
0
0
ENDTAB
0
TABLE
2
DIMSTYLE
5
A
100
AcDbSymbolTable
70
1
0
ENDTAB
0
TABLE
2
BLOCK_RECORD
5
1
100
AcDbSymbolTable
70
1
0
BLOCK_RECORD
5
1F
100
AcDbSymbolTableRecord
100
AcDbBlockTableRecord
2
*MODEL_SPACE
0
BLOCK_RECORD
5
1B
100
AcDbSymbolTableRecord
100
AcDbBlockTableRecord
2
*PAPER_SPACE
0
ENDTAB
0
ENDSEC
0
SECTION
2
BLOCKS
0
BLOCK
5
20
100
AcDbEntity
100
AcDbBlockBegin
2
*MODEL_SPACE
0
ENDBLK
5
21
100
AcDbEntity
100
AcDbBlockEnd
0
BLOCK
5
1C
100
AcDbEntity
100
AcDbBlockBegin
2
*PAPER_SPACE
0
ENDBLK
5
1D
100
AcDbEntity
100
AcDbBlockEnd
0
ENDSEC
0
SECTION
2
ENTITIES
0
POINT
5
100
100
AcDbEntity
8
0
100
AcDbPoint
10
11.850000000000001
20
0
30
0
0
POINT
5
101
100
AcDbEntity
8
0
100
AcDbPoint
10
12.450000000000001
20
0
30
0
0
POINT
5
102
100
AcDbEntity
8
0
100
AcDbPoint
10
12.750000000000002
20
0
30
0
0
POINT
5
103
100
AcDbEntity
8
0
100
AcDbPoint
10
12.25
20
0
30
0
0
POINT
5
104
100
AcDbEntity
8
0
100
AcDbPoint
10
-11.850000000000001
20
0
30
0
0
POINT
5
105
100
AcDbEntity
8
0
100
AcDbPoint
10
-11.449999999999999
20
0
30
0
0
POINT
5
106
100
AcDbEntity
8
0
100
AcDbPoint
10
-11.25
20
0
30
0
0
POINT
5
107
100
AcDbEntity
8
0
100
AcDbPoint
10
-10.949999999999999
20
0
30
0
0
LINE
5
108
100
AcDbEntity
8
0
100
AcDbLine
10
10.949999999999999
20
0
30
0
11
12.750000000000002
21
0
31
0
0
LINE
5
109
100
AcDbEntity
8
0
100
AcDbLine
10
12.750000000000002
20
0
30
0
11
12.750000000000002
21
-0.4000000000000003
31
0
0
LINE
5
110
100
AcDbEntity
8
0
100
AcDbLine
10
12.750000000000002
20
-0.4000000000000003
30
0
11
12.25
21
-0.4000000000000003
31
0
0
LINE
5
111
100
AcDbEntity
8
0
100
AcDbLine
10
12.25
20
-0.4000000000000003
30
0
11
12.25
21
-1.8000000000000005
31
0
0
LINE
5
112
100
AcDbEntity
8
0
100
AcDbLine
10
12.25
20
-1.8000000000000005
30
0
11
12.450000000000001
21
-1.8000000000000005
31
0
0
LINE
5
113
100
AcDbEntity
8
0
100
AcDbLine
10
12.450000000000001
20
-1.8000000000000005
30
0
11
12.450000000000001
21
-2.4000000000000004
31
0
0
LINE
5
114
100
AcDbEntity
8
0
100
AcDbLine
10
12.450000000000001
20
-2.4000000000000004
30
0
11
11.25
21
-2.3999999999999995
31
0
0
LINE
5
115
100
AcDbEntity
8
0
100
AcDbLine
10
11.25
20
-2.3999999999999995
30
0
11
11.25
21
-1.8000000000000005
31
0
0
LINE
5
116
100
AcDbEntity
8
0
100
AcDbLine
10
11.25
20
-1.8000000000000005
30
0
11
11.449999999999999
21
-1.8000000000000005
31
0
0
LINE
5
117
100
AcDbEntity
8
0
100
AcDbLine
10
11.449999999999999
20
-1.8000000000000005
30
0
11
11.449999999999999
21
-0.4000000000000003
31
0
0
LINE
5
118
100
AcDbEntity
8
0
100
AcDbLine
10
11.449999999999999
20
-0.4000000000000003
30
0
11
10.949999999999999
21
-0.4000000000000003
31
0
0
LINE
5
119
100
AcDbEntity
8
0
100
AcDbLine
10
10.949999999999999
20
-0.4000000000000003
30
0
11
10.949999999999999
21
0
31
0
0
LINE
5
120
100
AcDbEntity
8
1
100
AcDbLine
10
11.850000000000001
20
0.39999999999999203
30
0
11
11.850000000000001
21
-2.4000000000000004
31
0
0
LINE
5
121
100
AcDbEntity
8
0
100
AcDbLine
10
-12.450000000000006
20
-1.8000000000000018
30
0
11
-12.25
21
-1.8000000000000018
31
0
0
LINE
5
122
100
AcDbEntity
8
0
100
AcDbLine
10
-10.949999999999999
20
0
30
0
11
-10.949999999999999
21
-0.4000000000000003
31
0
0
LINE
5
123
100
AcDbEntity
8
0
100
AcDbLine
10
-11.449999999999999
20
-0.4000000000000003
30
0
11
-11.449999999999999
21
-1.8000000000000018
31
0
0
LINE
5
124
100
AcDbEntity
8
0
100
AcDbLine
10
-12.25
20
-1.8000000000000018
30
0
11
-12.25
21
-0.40000000000000013
31
0
0
LINE
5
125
100
AcDbEntity
8
0
100
AcDbLine
10
-10.949999999999999
20
-0.4000000000000003
30
0
11
-11.449999999999999
21
-0.4000000000000003
31
0
0
LINE
5
126
100
AcDbEntity
8
0
100
AcDbLine
10
-12.750000000000002
20
-0.40000000000000002
30
0
11
-12.750000000000002
21
0
31
0
0
LINE
5
127
100
AcDbEntity
8
0
100
AcDbLine
10
-12.750000000000002
20
0
30
0
11
-10.949999999999999
21
0
31
0
0
LINE
5
128
100
AcDbEntity
8
0
100
AcDbLine
10
-11.25
20
-1.8000000000000018
30
0
11
-11.25
21
-2.3999999999999844
31
0
0
LINE
5
129
100
AcDbEntity
8
1
100
AcDbLine
10
-11.850000000000001
20
0.40000000000012514
30
0
11
-11.850000000000001
21
-2.3999999999999839
31
0
0
LINE
5
130
100
AcDbEntity
8
0
100
AcDbLine
10
-12.25
20
-0.40000000000000013
30
0
11
-12.750000000000002
21
-0.40000000000000002
31
0
0
LINE
5
131
100
AcDbEntity
8
0
100
AcDbLine
10
-12.450000000000008
20
-2.3999999999999835
30
0
11
-12.450000000000006
21
-1.8000000000000018
31
0
0
LINE
5
132
100
AcDbEntity
8
0
100
AcDbLine
10
-11.449999999999999
20
-1.8000000000000018
30
0
11
-11.25
21
-1.8000000000000018
31
0
0
LINE
5
133
100
AcDbEntity
8
0
100
AcDbLine
10
-11.25
20
-2.3999999999999844
30
0
11
-12.450000000000008
21
-2.3999999999999835
31
0
0
LINE
5
134
100
AcDbEntity
8
0
100
AcDbLine
10
11.164360147529342
20
0
30
0
11
11.500000000000005
21
0.39999999999971469
31
0
0
LINE
5
135
100
AcDbEntity
8
0
100
AcDbLine
10
12.200000000000006
20
0.39999999999970226
30
0
11
12.535639852470659
21
0
31
0
0
LINE
5
136
100
AcDbEntity
8
0
100
AcDbLine
10
-11.164360147528985
20
0
30
0
11
-11.499999999999996
21
0.40000000000012809
31
0
0
LINE
5
137
100
AcDbEntity
8
0
100
AcDbLine
10
-12.199999999999998
20
0.40000000000013791
30
0
11
-12.535639852471018
21
0
31
0
0
LINE
5
138
100
AcDbEntity
8
0
100
AcDbLine
10
12.200000000000006
20
0.39999999999970226
30
0
11
11.500000000000005
21
0.39999999999971469
31
0
0
LINE
5
139
100
AcDbEntity
8
0
100
AcDbLine
10
-12.199999999999998
20
0.40000000000013791
30
0
11
-11.499999999999996
21
0.40000000000012809
31
0
0
ENDSEC
0
SECTION
2
OBJECTS
0
DICTIONARY
5
C
100
AcDbDictionary
3
ACAD_GROUP
350
D
3
ACAD_MLINESTYLE
350
17
0
DICTIONARY
5
D
100
AcDbDictionary
0
DICTIONARY
5
1A
330
C
100
AcDbDictionary
0
DICTIONARY
5
17
100
AcDbDictionary
0
ENDSEC
0
EOF
