0
SECTION
2
HEADER
9
$INSUNITS
70
4
9
$ACADVER
1
AC1014
9
$HANDSEED
5
FFFF
0
ENDSEC
0
SECTION
2
TABLES
0
TABLE
2
VPORT
5
8
100
AcDbSymbolTable
0
ENDTAB
0
TABLE
2
LTYPE
5
5
100
AcDbSymbolTable
0
LTYPE
5
14
100
AcDbSymbolTableRecord
100
AcDbLinetypeTableRecord
2
BYBLOCK
70
0
0
LTYPE
5
15
100
AcDbSymbolTableRecord
100
AcDbLinetypeTableRecord
2
BYLAYER
70
0
0
LTYPE
5
16
100
AcDbSymbolTableRecord
100
AcDbLinetypeTableRecord
2
DASHED
70
0
3
Dashed __ __ __ __ __ __ __ __ __ __ __ __ __ _
72
65
73
2
40
0.75
49
0.5
74
0
49
-0.25
74
0
0
ENDTAB
0
TABLE
2
LAYER
5
2
100
AcDbSymbolTable
70
3
0
LAYER
5
50
100
AcDbSymbolTableRecord
100
AcDbLayerTableRecord
2
1
70
0
62
7
6
DASHED
0
LAYER
5
51
100
AcDbSymbolTableRecord
100
AcDbLayerTableRecord
2
0
70
0
62
7
6
CONTINUOUS
0
ENDTAB
0
TABLE
2
STYLE
5
3
100
AcDbSymbolTable
70
1
0
STYLE
5
11
100
AcDbSymbolTableRecord
100
AcDbTextStyleTableRecord
2
STANDARD
70
0
0
ENDTAB
0
TABLE
2
VIEW
5
6
100
AcDbSymbolTable
70
0
0
ENDTAB
0
TABLE
2
UCS
5
7
100
AcDbSymbolTable
70
0
0
ENDTAB
0
TABLE
2
APPID
5
9
100
AcDbSymbolTable
70
2
0
APPID
5
12
100
AcDbSymbolTableRecord
100
AcDbRegAppTableRecord
2
ACAD
70
0
0
ENDTAB
0
TABLE
2
DIMSTYLE
5
A
100
AcDbSymbolTable
70
1
0
ENDTAB
0
TABLE
2
BLOCK_RECORD
5
1
100
AcDbSymbolTable
70
1
0
BLOCK_RECORD
5
1F
100
AcDbSymbolTableRecord
100
AcDbBlockTableRecord
2
*MODEL_SPACE
0
BLOCK_RECORD
5
1B
100
AcDbSymbolTableRecord
100
AcDbBlockTableRecord
2
*PAPER_SPACE
0
ENDTAB
0
ENDSEC
0
SECTION
2
BLOCKS
0
BLOCK
5
20
100
AcDbEntity
100
AcDbBlockBegin
2
*MODEL_SPACE
0
ENDBLK
5
21
100
AcDbEntity
100
AcDbBlockEnd
0
BLOCK
5
1C
100
AcDbEntity
100
AcDbBlockBegin
2
*PAPER_SPACE
0
ENDBLK
5
1D
100
AcDbEntity
100
AcDbBlockEnd
0
ENDSEC
0
SECTION
2
ENTITIES
0
POINT
5
100
100
AcDbEntity
8
0
100
AcDbPoint
10
0
20
0
30
0
0
POINT
5
101
100
AcDbEntity
8
0
100
AcDbPoint
10
-6.9226497308103703
20
4.8102218706742741e-16
30
0
0
POINT
5
102
100
AcDbEntity
8
0
100
AcDbPoint
10
6.9226497308103703
20
-4.8102218706742741e-16
30
0
0
POINT
5
103
100
AcDbEntity
8
0
100
AcDbPoint
10
-11.850000000000001
20
8.3266726846886741e-16
30
0
0
POINT
5
104
100
AcDbEntity
8
0
100
AcDbPoint
10
11.850000000000001
20
-8.3266726846886741e-16
30
0
0
LWPOLYLINE
5
105
100
AcDbEntity
8
0
100
AcDbPolyline
90
4
70
1
43
0.0
10
-20
20
2
10
20
20
2
10
20
20
-2.0000000000000027
10
-20
20
-2.0000000000000027
0
LINE
5
106
100
AcDbEntity
8
1
100
AcDbLine
10
0
20
-2.0000000000000027
30
0
11
0
21
2
31
0
0
LINE
5
107
100
AcDbEntity
8
1
100
AcDbLine
10
-20
20
1.4140595076198304e-15
30
0
11
20
21
-1.4140595076198304e-15
31
0
0
LINE
5
108
100
AcDbEntity
8
1
100
AcDbLine
10
-11.850000000000001
20
2
30
0
11
-11.850000000000001
21
-2.0000000000000027
31
0
0
LINE
5
109
100
AcDbEntity
8
1
100
AcDbLine
10
11.850000000000001
20
2
30
0
11
11.850000000000001
21
-2.0000000000000027
31
0
0
LINE
5
110
100
AcDbEntity
8
0
100
AcDbLine
10
-12.750000000000002
20
2
30
0
11
-12.750000000000002
21
-2.0000000000000027
31
0
0
LINE
5
111
100
AcDbEntity
8
1
100
AcDbLine
10
-12.450000000000001
20
2
30
0
11
-12.450000000000001
21
-2.0000000000000027
31
0
0
LINE
5
112
100
AcDbEntity
8
1
100
AcDbLine
10
-11.25
20
2
30
0
11
-11.25
21
-2.0000000000000027
31
0
0
LINE
5
113
100
AcDbEntity
8
0
100
AcDbLine
10
-10.949999999999999
20
2
30
0
11
-10.949999999999999
21
-2.0000000000000027
31
0
0
LINE
5
114
100
AcDbEntity
8
1
100
AcDbLine
10
11.25
20
2
30
0
11
11.25
21
-2.0000000000000027
31
0
0
LINE
5
115
100
AcDbEntity
8
1
100
AcDbLine
10
12.450000000000001
20
2
30
0
11
12.450000000000001
21
-2.0000000000000027
31
0
0
LINE
5
116
100
AcDbEntity
8
0
100
AcDbLine
10
10.949999999999999
20
2
30
0
11
10.949999999999999
21
-2.0000000000000027
31
0
0
LINE
5
117
100
AcDbEntity
8
0
100
AcDbLine
10
12.750000000000002
20
2
30
0
11
12.750000000000002
21
-2.0000000000000027
31
0
0
LWPOLYLINE
5
118
100
AcDbEntity
8
0
100
AcDbPolyline
90
4
70
1
43
0.0
10
-13.35
20
0.75000000000000078
10
-10.350000000000001
20
0.75000000000000078
10
-10.350000000000001
20
-0.74999999999999944
10
-13.35
20
-0.74999999999999944
0
LWPOLYLINE
5
119
100
AcDbEntity
8
0
100
AcDbPolyline
90
4
70
1
43
0.0
10
10.350000000000001
20
0.74999999999999745
10
13.35
20
0.74999999999999745
10
13.35
20
-0.74999999999999944
10
10.350000000000001
20
-0.74999999999999944
0
LINE
5
120
100
AcDbEntity
8
1
100
AcDbLine
10
-11.850000000000001
20
1.0000000000000049
30
0
11
-6.3452994616207139
21
1.00000000000004
31
0
0
LINE
5
121
100
AcDbEntity
8
1
100
AcDbLine
10
-6.3452994616207139
20
1.00000000000004
30
0
11
-7.5000000000000009
21
-1
31
0
0
LINE
5
122
100
AcDbEntity
8
1
100
AcDbLine
10
-7.5000000000000009
20
-1
30
0
11
0.57735026918963217
21
-1.0000000000000004
31
0
0
LINE
5
123
100
AcDbEntity
8
1
100
AcDbLine
10
0.57735026918963217
20
-1.0000000000000004
30
0
11
-0.57735026918963217
21
1.0000000000000004
31
0
0
LINE
5
124
100
AcDbEntity
8
1
100
AcDbLine
10
-0.57735026918963217
20
1.0000000000000004
30
0
11
7.4999999999999991
21
0.99999999999999889
31
0
0
LINE
5
125
100
AcDbEntity
8
1
100
AcDbLine
10
7.4999999999999991
20
0.99999999999999889
30
0
11
6.3452994616207299
21
-1.0000000000000129
31
0
0
LINE
5
126
100
AcDbEntity
8
1
100
AcDbLine
10
6.3452994616207299
20
-1.0000000000000129
30
0
11
11.850000000000001
21
-0.99999999999999445
31
0
0
LINE
5
127
100
AcDbEntity
8
1
100
AcDbLine
10
-3.4613248654051851
20
-1
30
0
11
-3.4613248654051878
21
2
31
0
0
LINE
5
128
100
AcDbEntity
8
1
100
AcDbLine
10
3.4613248654051838
20
0.99999999999999978
30
0
11
3.4613248654051816
21
-2.0000000000000027
31
0
0
LINE
5
129
100
AcDbEntity
8
0
100
AcDbLine
10
-12.850000000000001
20
0.050000000000000835
30
0
11
-10.949999999999999
21
0.050000000000000676
31
0
0
LINE
5
130
100
AcDbEntity
8
0
100
AcDbLine
10
-10.949999999999999
20
1.0500000000000032
30
0
11
-6.2586969212422581
21
1.0500000000000487
31
0
0
LINE
5
131
100
AcDbEntity
8
0
100
AcDbLine
10
-6.2586969212422581
20
1.0500000000000487
30
0
11
-7.4133974596215522
21
-0.95000000000000095
31
0
0
LINE
5
132
100
AcDbEntity
8
0
100
AcDbLine
10
-7.4133974596215522
20
-0.95000000000000095
30
0
11
0.49074772881118806
21
-0.95000000000000062
31
0
0
LINE
5
133
100
AcDbEntity
8
0
100
AcDbLine
10
0.49074772881118806
20
-0.95000000000000062
30
0
11
-0.66395280956806402
21
1.0499999999999996
31
0
0
LINE
5
134
100
AcDbEntity
8
0
100
AcDbLine
10
-0.66395280956806402
20
1.0499999999999996
30
0
11
7.5866025403784363
21
1.0499999999999989
31
0
0
LINE
5
135
100
AcDbEntity
8
0
100
AcDbLine
10
7.5866025403784363
20
1.0499999999999989
30
0
11
6.43190200199916
21
-0.95000000000001028
31
0
0
LINE
5
136
100
AcDbEntity
8
0
100
AcDbLine
10
6.43190200199916
20
-0.95000000000001028
30
0
11
10.85
21
-0.9499999999999964
31
0
0
LINE
5
137
100
AcDbEntity
8
0
100
AcDbLine
10
-12.850000000000001
20
0.050000000000000835
30
0
11
-12.850000000000001
21
-2
31
0
0
LINE
5
138
100
AcDbEntity
8
0
100
AcDbLine
10
-12.750000000000002
20
-0.04999999999999892
30
0
11
-10.85
21
-0.049999999999999156
31
0
0
LINE
5
139
100
AcDbEntity
8
0
100
AcDbLine
10
-10.85
20
-0.049999999999999156
30
0
11
-10.85
21
0.95000000000000207
31
0
0
LINE
5
140
100
AcDbEntity
8
0
100
AcDbLine
10
-10.85
20
0.95000000000000207
30
0
11
-6.4319020019991688
21
0.95000000000003137
31
0
0
LINE
5
141
100
AcDbEntity
8
0
100
AcDbLine
10
-6.4319020019991688
20
0.95000000000003137
30
0
11
-7.5866025403784469
21
-1.0499999999999987
31
0
0
LINE
5
142
100
AcDbEntity
8
0
100
AcDbLine
10
-7.5866025403784469
20
-1.0499999999999987
30
0
11
0.66395280956804825
21
-1.0499999999999963
31
0
0
LINE
5
143
100
AcDbEntity
8
0
100
AcDbLine
10
0.66395280956804825
20
-1.0499999999999963
30
0
11
-0.49074772881116713
21
0.95000000000000073
31
0
0
LINE
5
144
100
AcDbEntity
8
0
100
AcDbLine
10
-0.49074772881116713
20
0.95000000000000073
30
0
11
7.4133974596215744
21
0.95000000000000373
31
0
0
LINE
5
145
100
AcDbEntity
8
0
100
AcDbLine
10
7.4133974596215744
20
0.95000000000000373
30
0
11
6.2586969212422918
21
-1.0499999999999974
31
0
0
LINE
5
146
100
AcDbEntity
8
0
100
AcDbLine
10
6.2586969212422918
20
-1.0499999999999974
30
0
11
10.949999999999999
21
-1.0499999999999916
31
0
0
LINE
5
147
100
AcDbEntity
8
0
100
AcDbLine
10
10.85
20
-0.9499999999999964
30
0
11
10.85
21
-0.90296515876235939
31
0
0
LINE
5
148
100
AcDbEntity
8
0
100
AcDbLine
10
10.85
20
-0.90296515876235939
30
0
11
10.849999999999994
21
0.049999999999999226
31
0
0
LINE
5
149
100
AcDbEntity
8
0
100
AcDbLine
10
10.849999999999994
20
0.049999999999999226
30
0
11
12.750000000000002
21
0.049999999999999226
31
0
0
LINE
5
150
100
AcDbEntity
8
0
100
AcDbLine
10
10.949999999999999
20
-0.050000000000000766
30
0
11
12.850000000000001
21
-0.050000000000000877
31
0
0
LINE
5
151
100
AcDbEntity
8
0
100
AcDbLine
10
12.850000000000001
20
-0.050000000000000877
30
0
11
12.850000000000001
21
2
31
0
0
LINE
5
152
100
AcDbEntity
8
1
100
AcDbLine
10
-12.25
20
2
30
0
11
-12.25
21
-2.0000000000000027
31
0
0
LINE
5
153
100
AcDbEntity
8
1
100
AcDbLine
10
-11.449999999999999
20
-2.0000000000000027
30
0
11
-11.449999999999999
21
2
31
0
0
LINE
5
154
100
AcDbEntity
8
1
100
AcDbLine
10
11.449999999999999
20
2
30
0
11
11.449999999999999
21
-2.0000000000000027
31
0
0
LINE
5
155
100
AcDbEntity
8
1
100
AcDbLine
10
12.25
20
2
30
0
11
12.25
21
-2.0000000000000027
31
0
0
ENDSEC
0
SECTION
2
OBJECTS
0
DICTIONARY
5
C
100
AcDbDictionary
3
ACAD_GROUP
350
D
3
ACAD_MLINESTYLE
350
17
0
DICTIONARY
5
D
100
AcDbDictionary
0
DICTIONARY
5
1A
330
C
100
AcDbDictionary
0
DICTIONARY
5
17
100
AcDbDictionary
0
ENDSEC
0
EOF
